<svg xmlns="http://www.w3.org/2000/svg" width="512" height="512" viewBox="0 0 512 512">
  <defs>
    <linearGradient id="g1" x1="0" y1="0" x2="1" y2="1">
      <stop offset="0%" stop-color="#2563EB" />
      <stop offset="100%" stop-color="#06B6D4" />
    </linearGradient>
  </defs>
  <rect x="20" y="20" width="472" height="472" rx="112" fill="#020617" />
  <rect x="40" y="40" width="432" height="432" rx="98" fill="url(#g1)" />
  <path
    d="M138 256c0-65.2 52.8-118 118-118h14c65.2 0 118 52.8 118 118s-52.8 118-118 118h-14c-65.2 0-118-52.8-118-118zm62 0c0 30.9 25.1 56 56 56h14c30.9 0 56-25.1 56-56s-25.1-56-56-56h-14c-30.9 0-56 25.1-56 56z"
    fill="#fff"
    opacity="0.94"
  />
</svg>
